<svg width="1074" height="190" viewBox="0 0 1074 190" fill="none" xmlns="http://www.w3.org/2000/svg">
<mask id="mask0" mask-type="alpha" maskUnits="userSpaceOnUse" x="0" y="0" width="1074" height="190">
<rect width="1074" height="190" fill="#C4C4C4"/>
</mask>
<g mask="url(#mask0)">
<path fill-rule="evenodd" clip-rule="evenodd" d="M80.7666 183.499L32.4434 63.0195L125.256 25.7933L173.579 146.273L294.059 97.9502L331.285 190.763L210.805 239.086L258.45 357.874L165.637 395.1L117.993 276.312L-0.79499 323.957L-38.0211 231.144L80.7666 183.499Z" fill="#E7EAF1"/>
<path fill-rule="evenodd" clip-rule="evenodd" d="M511.012 197.545L471.458 176.863L487.391 146.392L526.945 167.075L547.627 127.522L578.097 143.455L557.415 183.008L596.413 203.4L580.48 233.87L541.482 213.478L521.09 252.476L490.62 236.543L511.012 197.545Z" fill="#E7EAF1"/>
<path fill-rule="evenodd" clip-rule="evenodd" d="M420.5 104.749C431.131 104.749 439.749 96.131 439.749 85.5C439.749 74.869 431.131 66.2509 420.5 66.2509C409.869 66.2509 401.251 74.869 401.251 85.5C401.251 96.131 409.869 104.749 420.5 104.749ZM420.5 123C441.211 123 458 106.211 458 85.5C458 64.7893 441.211 48 420.5 48C399.789 48 383 64.7893 383 85.5C383 106.211 399.789 123 420.5 123Z" fill="#E7EAF1"/>
<path fill-rule="evenodd" clip-rule="evenodd" d="M778.5 243.308C801.038 243.308 819.308 225.038 819.308 202.5C819.308 179.962 801.038 161.692 778.5 161.692C755.962 161.692 737.692 179.962 737.692 202.5C737.692 225.038 755.962 243.308 778.5 243.308ZM778.5 282C822.407 282 858 246.407 858 202.5C858 158.593 822.407 123 778.5 123C734.593 123 699 158.593 699 202.5C699 246.407 734.593 282 778.5 282Z" fill="#E7EAF1"/>
</g>
</svg>
