<svg width="881" height="389" viewBox="0 0 881 389" fill="none" xmlns="http://www.w3.org/2000/svg">
<g opacity="0.07">
<path fill-rule="evenodd" clip-rule="evenodd" d="M836.511 89.1235L819 71.5431L832.489 58L850 75.5803L867.511 58L881 71.5432L863.489 89.1235L880.754 106.457L867.265 120L850 102.667L832.735 120L819.246 106.457L836.511 89.1235Z" fill="#626879"/>
<path fill-rule="evenodd" clip-rule="evenodd" d="M836.511 89.1235L819 71.5431L832.489 58L850 75.5803L867.511 58L881 71.5432L863.489 89.1235L880.754 106.457L867.265 120L850 102.667L832.735 120L819.246 106.457L836.511 89.1235Z" fill="#626879"/>
<path fill-rule="evenodd" clip-rule="evenodd" d="M695.462 299.781L677.173 269.684L700.303 255.502L718.592 285.6L748.616 267.191L762.705 290.377L732.681 308.785L750.713 338.46L727.584 352.641L709.551 322.967L679.949 341.117L665.86 317.931L695.462 299.781Z" fill="#626879"/>
<path fill-rule="evenodd" clip-rule="evenodd" d="M695.462 299.781L677.173 269.684L700.303 255.502L718.592 285.6L748.616 267.191L762.705 290.377L732.681 308.785L750.713 338.46L727.584 352.641L709.551 322.967L679.949 341.117L665.86 317.931L695.462 299.781Z" fill="#626879"/>
<path fill-rule="evenodd" clip-rule="evenodd" d="M95.4609 220.673L0 124.832L73.5391 51L169 146.841L264.461 51L338 124.832L242.539 220.673L336.659 315.168L263.12 389L169 294.505L74.88 389L1.34089 315.168L95.4609 220.673Z" fill="#626879"/>
<path fill-rule="evenodd" clip-rule="evenodd" d="M95.4609 220.673L0 124.832L73.5391 51L169 146.841L264.461 51L338 124.832L242.539 220.673L336.659 315.168L263.12 389L169 294.505L74.88 389L1.34089 315.168L95.4609 220.673Z" fill="#626879"/>
<path fill-rule="evenodd" clip-rule="evenodd" d="M434.5 87.0152C450.801 87.0152 464.015 73.8008 464.015 57.5C464.015 41.1992 450.801 27.9848 434.5 27.9848C418.199 27.9848 404.985 41.1992 404.985 57.5C404.985 73.8008 418.199 87.0152 434.5 87.0152ZM434.5 115C466.256 115 492 89.2564 492 57.5C492 25.7436 466.256 0 434.5 0C402.744 0 377 25.7436 377 57.5C377 89.2564 402.744 115 434.5 115Z" fill="#626879"/>
</g>
</svg>
