<svg width="150" height="35" viewBox="0 0 150 35" fill="none" xmlns="http://www.w3.org/2000/svg">
<path d="M1.01351 3.80103C1.68937 2.63081 2.6484 1.71956 3.89176 1.06593C5.13453 0.41285 6.56376 0.0860395 8.18001 0.0860395C10.2309 0.0860395 11.9555 0.592139 13.3536 1.60434C14.7522 2.61654 15.653 3.99135 16.0573 5.72851H11.1398C10.8444 5.15431 10.4366 4.71631 9.91628 4.41481C9.3954 4.1133 8.79353 3.96255 8.1098 3.96255C7.05317 3.96255 6.21067 4.31089 5.58142 5.00678C4.95217 5.70348 4.63725 6.63303 4.63725 7.79598C4.63725 8.97347 4.95217 9.91003 5.58142 10.6065C6.21067 11.3029 7.05317 11.651 8.1098 11.651C8.79353 11.651 9.3954 11.5002 9.91628 11.1984C10.4366 10.8972 10.8444 10.4592 11.1398 9.88499H16.0573C15.653 11.6224 14.7522 12.997 13.3536 14.0092C11.9555 15.0214 10.2309 15.5275 8.18001 15.5275C6.56376 15.5275 5.13453 15.2012 3.89176 14.5476C2.6484 13.8945 1.68937 12.9827 1.01351 11.8125C0.337932 10.6425 0 9.30325 0 7.79598C0 6.30299 0.337932 4.97152 1.01351 3.80103Z" fill="white"/>
<path d="M28.8637 10.5957C29.5393 9.89231 29.8772 8.95198 29.8772 7.77449C29.8772 6.56847 29.5393 5.61738 28.8637 4.92095C28.1879 4.22453 27.2673 3.87645 26.102 3.87645C24.921 3.87645 23.9963 4.22453 23.3286 4.92095C22.6603 5.61738 22.3265 6.56847 22.3265 7.77449C22.3265 8.96625 22.6603 9.91007 23.3286 10.6065C23.9963 11.3029 24.921 11.651 26.102 11.651C27.2673 11.651 28.1879 11.2992 28.8637 10.5957ZM21.8604 14.5692C20.5704 13.9013 19.549 12.9755 18.7954 11.7907C18.042 10.6065 17.6653 9.26776 17.6653 7.77449C17.6653 6.2815 18.042 4.94249 18.7954 3.758C19.549 2.57325 20.5704 1.65096 21.8604 0.990337C23.1498 0.330255 24.5638 -5.62668e-05 26.102 -5.62668e-05C27.6556 -5.62668e-05 29.0735 0.330255 30.3553 0.990337C31.6371 1.65096 32.6509 2.57325 33.3967 3.758C34.1425 4.94249 34.5151 6.2815 34.5151 7.77449C34.5151 9.26776 34.1425 10.6065 33.3967 11.7907C32.6509 12.9755 31.633 13.9013 30.3436 14.5692C29.0537 15.2365 27.6402 15.5703 26.102 15.5703C24.5638 15.5703 23.1498 15.2365 21.8604 14.5692Z" fill="white"/>
<path d="M51.7845 15.4198H47.2165L41.1338 6.9343V15.4198H36.5659V0.236835H41.1338L47.2165 8.82975V0.236835H51.7845V15.4198Z" fill="white"/>
<path d="M55.8863 14.3108C54.6587 13.4708 53.9985 12.2686 53.905 10.7034H58.7762C58.8228 11.2346 58.9935 11.6225 59.2889 11.8664C59.5837 12.1106 59.9648 12.2325 60.4309 12.2325C60.8504 12.2325 61.1959 12.1356 61.4677 11.9418C61.7395 11.7477 61.8759 11.4785 61.8759 11.1342C61.8759 10.6894 61.6504 10.3449 61.1997 10.1004C60.749 9.85653 60.019 9.58329 59.0093 9.28206C57.9372 8.95201 57.0705 8.63247 56.4107 8.3237C55.75 8.01492 55.1755 7.56293 54.6861 6.96692C54.1963 6.37144 53.9516 5.5921 53.9516 4.63025C53.9516 3.65412 54.2159 2.81798 54.7443 2.12128C55.2725 1.42513 56.0025 0.897489 56.9351 0.538373C57.8673 0.179796 58.9236 -3.05176e-05 60.1043 -3.05176e-05C62.0157 -3.05176e-05 63.5419 0.412925 64.6839 1.23803C65.8262 2.06421 66.4356 3.22313 66.5134 4.71639H61.5493C61.5338 4.25686 61.3824 3.91255 61.0951 3.68265C60.8076 3.45302 60.4385 3.33808 59.9881 3.33808C59.6461 3.33808 59.3664 3.43149 59.1488 3.61804C58.9312 3.80487 58.8228 4.0703 58.8228 4.41488C58.8228 4.70239 58.9428 4.95006 59.1838 5.15788C59.4247 5.36597 59.7236 5.54526 60.081 5.69629C60.4385 5.84704 60.9666 6.03763 61.6661 6.26699C62.7067 6.59757 63.5652 6.92385 64.2414 7.24689C64.9172 7.56993 65.4999 8.02219 65.9893 8.60367C66.4784 9.18514 66.7231 9.92087 66.7231 10.8111C66.7231 11.7156 66.4784 12.527 65.9893 13.2447C65.4999 13.9627 64.7926 14.5296 63.8682 14.9461C62.9438 15.3625 61.8523 15.5706 60.5938 15.5706C58.683 15.5706 57.1133 15.1507 55.8863 14.3108Z" fill="white"/>
<path d="M73.3186 0.236732V9.04501C73.3186 9.86339 73.5246 10.4952 73.9362 10.9402C74.3478 11.3855 74.9736 11.6078 75.8126 11.6078C76.6513 11.6078 77.2844 11.3817 77.7117 10.9294C78.1391 10.4772 78.3526 9.84939 78.3526 9.04501V0.236732H82.9205V9.04501C82.9205 10.4379 82.6018 11.6261 81.9653 12.6092C81.3279 13.5929 80.4621 14.3321 79.3667 14.8275C78.2711 15.3228 77.0551 15.5705 75.7191 15.5705C74.3828 15.5705 73.1907 15.3228 72.1417 14.8275C71.0929 14.3321 70.2693 13.5967 69.6713 12.62C69.0732 11.6439 68.774 10.4521 68.774 9.04501V0.236732H73.3186Z" fill="white"/>
<path d="M104.618 0.236766V15.4197H100.05V7.04218L96.9505 15.4197H93.1283L90.0054 6.97758V15.4197H85.4374V0.236766H90.9609L95.0857 10.1006L99.1179 0.236766H104.618Z" fill="white"/>
<path d="M111.796 3.61806V6.09445H117.04V9.30333H111.796V12.0384H117.739V15.4199H107.228V0.236616H117.739V3.61806H111.796Z" fill="white"/>
<path d="M124.567 6.93448H126.828C127.449 6.93448 127.915 6.79826 128.226 6.52529C128.537 6.25286 128.692 5.85767 128.692 5.34081C128.692 4.85301 128.533 4.46859 128.215 4.18862C127.896 3.90892 127.434 3.76867 126.828 3.76867H124.567V6.93448ZM128.319 15.42L125.057 9.82059H124.567V15.42H119.999V0.236745H127.201C128.521 0.236745 129.64 0.448875 130.557 0.872061C131.473 1.29578 132.165 1.87726 132.631 2.61649C133.097 3.35625 133.33 4.18539 133.33 5.10391C133.33 6.13764 133.023 7.04593 132.41 7.82823C131.795 8.61107 130.898 9.16724 129.718 9.49755L133.423 15.42H128.319Z" fill="white"/>
<path d="M2.93671 24.4289V28.0669H7.20894V29.2379H2.93671V32.9852H7.7135V34.1562H1.40582V23.2579H7.7135V24.4289H2.93671Z" fill="white"/>
<path d="M19.319 28.7227L22.9185 34.1563H21.186L18.3771 29.9094L15.7025 34.1563H14.0038L17.5865 28.7227L13.9869 23.2736H15.7025L18.5286 27.5361L21.2195 23.2736H22.9351L19.319 28.7227Z" fill="white"/>
<path d="M35.1297 27.9264C35.5331 27.5829 35.7353 27.0938 35.7353 26.4588C35.7353 25.116 34.905 24.4443 33.2457 24.4443H30.9917V28.4417H33.2457C34.0978 28.4417 34.7259 28.2697 35.1297 27.9264ZM36.2984 28.7149C35.6313 29.3134 34.6137 29.6127 33.2457 29.6127H30.9917V34.1563H29.4611V23.2736H33.2457C34.5686 23.2736 35.5751 23.5699 36.2646 24.1633C36.9548 24.7569 37.2994 25.5217 37.2994 26.4588C37.2994 27.3643 36.9656 28.1165 36.2984 28.7149Z" fill="white"/>
<path d="M45.2214 24.4289V28.0669H49.4939V29.2379H45.2214V32.9852H49.9982V34.1562H43.6908V23.2579H49.9982V24.4289H45.2214Z" fill="white"/>
<path d="M58.3409 28.5666H60.5946C61.4242 28.5666 62.0465 28.3768 62.4619 27.9967C62.8765 27.6169 63.0839 27.1094 63.0839 26.4744C63.0839 25.8291 62.8794 25.3295 62.4701 24.9755C62.0608 24.6217 61.4359 24.4443 60.5946 24.4443H58.3409V28.5666ZM62.9831 34.1563L60.1911 29.7064H58.3409V34.1563H56.8103V23.2736H60.5946C61.4802 23.2736 62.2289 23.4141 62.8401 23.6952C63.4512 23.9762 63.908 24.356 64.2107 24.835C64.5134 25.3139 64.6652 25.8603 64.6652 26.4744C64.6652 27.2239 64.4324 27.885 63.9669 28.4573C63.5016 29.0299 62.8036 29.4098 61.8732 29.5971L64.8167 34.1563H62.9831Z" fill="white"/>
<path d="M73.058 34.1563H71.5274V23.2736H73.058V34.1563Z" fill="white"/>
<path d="M81.6865 24.4289V28.0669H85.9584V29.2379H81.6865V32.9852H86.463V34.1562H80.1559V23.2579H86.463V24.4289H81.6865Z" fill="white"/>
<path d="M102.493 34.1562H100.962L94.806 25.4909V34.1562H93.2754V23.2581H94.806L100.962 31.9078V23.2581H102.493V34.1562Z" fill="white"/>
<path d="M109.793 25.842C110.308 24.9938 111.012 24.3302 111.904 23.8513C112.795 23.3726 113.784 23.133 114.872 23.133C116.151 23.133 117.266 23.4195 118.22 23.9918C119.172 24.5644 119.868 25.3763 120.305 26.4275H118.472C118.146 25.7718 117.679 25.267 117.067 24.913C116.456 24.5593 115.724 24.3821 114.872 24.3821C114.054 24.3821 113.319 24.5593 112.669 24.913C112.018 25.267 111.508 25.7691 111.138 26.4197C110.768 27.0701 110.583 27.8328 110.583 28.7071C110.583 29.5713 110.768 30.3285 111.138 30.9789C111.508 31.6296 112.018 32.1319 112.669 32.4857C113.319 32.8397 114.054 33.0165 114.872 33.0165C115.724 33.0165 116.456 32.8423 117.067 32.4935C117.679 32.1448 118.146 31.6425 118.472 30.9867H120.305C119.868 32.0277 119.172 32.8318 118.22 33.3991C117.266 33.9665 116.151 34.25 114.872 34.25C113.784 34.25 112.795 34.0134 111.904 33.5396C111.012 33.0661 110.308 32.4076 109.793 31.5644C109.277 30.7213 109.019 29.7689 109.019 28.7071C109.019 27.6454 109.277 26.6905 109.793 25.842Z" fill="white"/>
<path d="M128.597 24.4289V28.0669H132.87V29.2379H128.597V32.9852H133.374V34.1562H127.067V23.2579H133.374V24.4289H128.597Z" fill="white"/>
<path d="M147.622 31.4555V28.3944H149.894V34.1949H139.214V31.4555H147.622Z" fill="white"/>
<path d="M145.88 21.783L142.426 22.8453L145.88 23.8935V21.783ZM148.152 21.0981V24.5927L149.894 25.1235V28.0029L139.214 24.4107V21.2516L149.894 17.6736V20.5667L148.152 21.0981Z" fill="white"/>
<path d="M146.561 11.4118C146.238 11.4118 145.991 11.5025 145.819 11.6842C145.647 11.8659 145.561 12.1246 145.561 12.46V14.0397H147.501V12.446C147.501 11.7566 147.187 11.4118 146.561 11.4118ZM143.456 14.0397V12.6558C143.456 11.9663 143.148 11.6215 142.532 11.6215C141.895 11.6215 141.577 11.9663 141.577 12.6558V14.0397H143.456ZM145.342 9.11252C145.822 8.77225 146.37 8.60212 146.986 8.60212C147.894 8.60212 148.606 8.89124 149.122 9.46895C149.637 10.0469 149.894 10.8575 149.894 11.9012V16.7791H139.214V12.0546C139.214 11.0481 139.456 10.2585 139.941 9.68565C140.426 9.11252 141.108 8.82609 141.986 8.82609C142.613 8.82609 143.135 8.97738 143.554 9.28051C143.973 9.58336 144.259 9.98635 144.41 10.4895C144.552 9.91151 144.862 9.45279 145.342 9.11252Z" fill="white"/>
<path d="M149.114 6.50559C148.523 7.24186 147.677 7.63785 146.576 7.69385V4.77247C146.95 4.74447 147.223 4.64218 147.394 4.46504C147.566 4.28818 147.652 4.05989 147.652 3.78019C147.652 3.52849 147.584 3.3212 147.447 3.15807C147.311 2.9952 147.122 2.91363 146.879 2.91363C146.566 2.91363 146.324 3.04877 146.152 3.31905C145.981 3.58933 145.789 4.02705 145.577 4.63275C145.344 5.27561 145.12 5.79544 144.902 6.19116C144.685 6.58743 144.367 6.93201 143.948 7.22571C143.529 7.51914 142.981 7.66585 142.304 7.66585C141.618 7.66585 141.03 7.50756 140.54 7.19044C140.05 6.87386 139.679 6.43587 139.426 5.87674C139.174 5.3176 139.048 4.68417 139.048 3.97563C139.048 2.82964 139.338 1.91408 139.919 1.22924C140.499 0.544386 141.315 0.17881 142.365 0.131968V3.10907C142.042 3.11849 141.8 3.20948 141.638 3.38177C141.477 3.55433 141.396 3.77535 141.396 4.04589C141.396 4.25076 141.461 4.41847 141.592 4.54903C141.724 4.67933 141.911 4.74447 142.153 4.74447C142.355 4.74447 142.529 4.67233 142.676 4.52803C142.822 4.38374 142.948 4.20445 143.054 3.9899C143.16 3.77535 143.294 3.4585 143.456 3.03935C143.688 2.41507 143.918 1.90009 144.145 1.49494C144.372 1.08952 144.69 0.740096 145.099 0.446397C145.508 0.152966 146.026 0.00625181 146.652 0.00625181C147.288 0.00625181 147.859 0.152966 148.364 0.446397C148.869 0.740096 149.268 1.16409 149.561 1.71837C149.854 2.27293 150 2.92763 150 3.6822C150 4.82846 149.705 5.76959 149.114 6.50559Z" fill="white"/>
</svg>
