<svg width="216" height="107" viewBox="0 0 216 107" fill="none" xmlns="http://www.w3.org/2000/svg">
<path d="M50.748 44.79V42.359L56.239 34.828H59.367V42.257H60.812V44.79H59.367V47H56.426V44.79H50.748ZM56.664 38.194L53.706 42.257H56.664V38.194ZM64.9239 44.093V47H61.9149V44.093H64.9239ZM78.4818 43.617C78.4818 44.2517 78.3174 44.8353 77.9888 45.368C77.6714 45.9007 77.1954 46.3257 76.5608 46.643C75.9374 46.9603 75.1781 47.119 74.2828 47.119C72.9341 47.119 71.8234 46.7903 70.9508 46.133C70.0781 45.4757 69.6021 44.5577 69.5228 43.379H72.6168C72.6621 43.8323 72.8208 44.1893 73.0928 44.45C73.3761 44.7107 73.7331 44.841 74.1638 44.841C74.5378 44.841 74.8324 44.739 75.0478 44.535C75.2631 44.331 75.3708 44.059 75.3708 43.719C75.3708 43.413 75.2688 43.158 75.0648 42.954C74.8721 42.75 74.6284 42.5857 74.3338 42.461C74.0391 42.325 73.6311 42.1663 73.1098 41.985C72.3504 41.7243 71.7271 41.475 71.2398 41.237C70.7638 40.9877 70.3501 40.625 69.9988 40.149C69.6588 39.6617 69.4888 39.0327 69.4888 38.262C69.4888 37.548 69.6701 36.9303 70.0328 36.409C70.3954 35.8877 70.8941 35.491 71.5288 35.219C72.1748 34.9357 72.9114 34.794 73.7388 34.794C75.0761 34.794 76.1358 35.1113 76.9178 35.746C77.7111 36.3807 78.1588 37.2533 78.2608 38.364H75.1158C75.0591 37.9673 74.9118 37.6557 74.6738 37.429C74.4471 37.191 74.1354 37.072 73.7388 37.072C73.3988 37.072 73.1211 37.1627 72.9058 37.344C72.7018 37.5253 72.5998 37.7917 72.5998 38.143C72.5998 38.4263 72.6904 38.67 72.8718 38.874C73.0644 39.0667 73.3024 39.2253 73.5858 39.35C73.8691 39.4747 74.2771 39.6333 74.8098 39.826C75.5804 40.0867 76.2094 40.3473 76.6968 40.608C77.1841 40.8573 77.6034 41.2257 77.9548 41.713C78.3061 42.2003 78.4818 42.835 78.4818 43.617ZM84.3729 37.395C85.5969 37.395 86.6226 37.735 87.4499 38.415C88.2773 39.0837 88.7986 40.0073 89.0139 41.186H85.9369C85.8463 40.778 85.6593 40.4607 85.3759 40.234C85.0926 40.0073 84.7356 39.894 84.3049 39.894C83.7949 39.894 83.3756 40.098 83.0469 40.506C82.7183 40.9027 82.5539 41.4863 82.5539 42.257C82.5539 43.0277 82.7183 43.617 83.0469 44.025C83.3756 44.4217 83.7949 44.62 84.3049 44.62C84.7356 44.62 85.0926 44.5067 85.3759 44.28C85.6593 44.0533 85.8463 43.736 85.9369 43.328H89.0139C88.7986 44.5067 88.2773 45.436 87.4499 46.116C86.6226 46.7847 85.5969 47.119 84.3729 47.119C83.4436 47.119 82.6163 46.9263 81.8909 46.541C81.1769 46.1443 80.6159 45.5777 80.2079 44.841C79.7999 44.1043 79.5959 43.243 79.5959 42.257C79.5959 41.2597 79.7943 40.3983 80.1909 39.673C80.5989 38.9363 81.1656 38.3753 81.8909 37.99C82.6163 37.5933 83.4436 37.395 84.3729 37.395ZM94.1353 37.395C94.8607 37.395 95.484 37.5593 96.0053 37.888C96.5267 38.2167 96.912 38.6643 97.1613 39.231V37.514H100.051V47H97.1613V45.283C96.912 45.8497 96.5267 46.2973 96.0053 46.626C95.484 46.9547 94.8607 47.119 94.1353 47.119C93.3533 47.119 92.6507 46.9263 92.0273 46.541C91.4153 46.1443 90.928 45.5777 90.5653 44.841C90.214 44.1043 90.0383 43.243 90.0383 42.257C90.0383 41.2597 90.214 40.3983 90.5653 39.673C90.928 38.9363 91.4153 38.3753 92.0273 37.99C92.6507 37.5933 93.3533 37.395 94.1353 37.395ZM95.0703 39.945C94.447 39.945 93.9427 40.149 93.5573 40.557C93.1833 40.965 92.9963 41.5317 92.9963 42.257C92.9963 42.9823 93.1833 43.549 93.5573 43.957C93.9427 44.365 94.447 44.569 95.0703 44.569C95.6823 44.569 96.181 44.3593 96.5663 43.94C96.963 43.5207 97.1613 42.9597 97.1613 42.257C97.1613 41.543 96.963 40.982 96.5663 40.574C96.181 40.1547 95.6823 39.945 95.0703 39.945ZM104.96 34.42V47H102.053V34.42H104.96ZM115.977 42.002C115.977 42.24 115.949 42.5007 115.892 42.784H109.313C109.347 43.498 109.528 44.0137 109.857 44.331C110.186 44.637 110.605 44.79 111.115 44.79C111.546 44.79 111.903 44.6823 112.186 44.467C112.469 44.2517 112.656 43.974 112.747 43.634H115.824C115.699 44.3027 115.427 44.9033 115.008 45.436C114.589 45.9573 114.056 46.371 113.41 46.677C112.764 46.9717 112.044 47.119 111.251 47.119C110.322 47.119 109.494 46.9263 108.769 46.541C108.055 46.1443 107.494 45.5777 107.086 44.841C106.678 44.1043 106.474 43.243 106.474 42.257C106.474 41.2597 106.672 40.3983 107.069 39.673C107.477 38.9363 108.044 38.3753 108.769 37.99C109.494 37.5933 110.322 37.395 111.251 37.395C112.192 37.395 113.019 37.5877 113.733 37.973C114.447 38.3583 114.997 38.9023 115.382 39.605C115.779 40.2963 115.977 41.0953 115.977 42.002ZM113.036 41.56C113.047 40.9367 112.877 40.472 112.526 40.166C112.186 39.8487 111.761 39.69 111.251 39.69C110.718 39.69 110.276 39.8487 109.925 40.166C109.574 40.4833 109.375 40.948 109.33 41.56H113.036ZM56.375 70.501V73H55.066C53.9553 73 53.0883 72.728 52.465 72.184C51.853 71.6287 51.547 70.7163 51.547 69.447V65.962H50.272V63.514H51.547V61.185H54.454V63.514H56.358V65.962H54.454V69.498C54.454 69.872 54.5277 70.1327 54.675 70.28C54.8337 70.4273 55.0943 70.501 55.457 70.501H56.375ZM62.4459 63.395C63.3865 63.395 64.2252 63.5933 64.9619 63.99C65.7099 64.3753 66.2935 64.9363 66.7129 65.673C67.1435 66.4097 67.3589 67.271 67.3589 68.257C67.3589 69.243 67.1435 70.1043 66.7129 70.841C66.2935 71.5777 65.7099 72.1443 64.9619 72.541C64.2252 72.9263 63.3865 73.119 62.4459 73.119C61.5052 73.119 60.6609 72.9263 59.9129 72.541C59.1649 72.1443 58.5755 71.5777 58.1449 70.841C57.7255 70.1043 57.5159 69.243 57.5159 68.257C57.5159 67.271 57.7255 66.4097 58.1449 65.673C58.5755 64.9363 59.1649 64.3753 59.9129 63.99C60.6609 63.5933 61.5052 63.395 62.4459 63.395ZM62.4459 65.911C61.8905 65.911 61.4202 66.115 61.0349 66.523C60.6609 66.9197 60.4739 67.4977 60.4739 68.257C60.4739 69.0163 60.6609 69.5943 61.0349 69.991C61.4202 70.3877 61.8905 70.586 62.4459 70.586C63.0012 70.586 63.4659 70.3877 63.8399 69.991C64.2139 69.5943 64.4009 69.0163 64.4009 68.257C64.4009 67.4977 64.2139 66.9197 63.8399 66.523C63.4659 66.115 63.0012 65.911 62.4459 65.911ZM88.6066 60.981L85.7336 73H82.1296L80.2086 64.959L78.2706 73H74.6666L71.7936 60.981H74.9556L76.5026 69.685L78.6106 60.981H81.7896L83.8976 69.685L85.4616 60.981H88.6066ZM89.8609 60.845C89.8609 60.403 90.0195 60.0403 90.3369 59.757C90.6542 59.4623 91.0735 59.315 91.5949 59.315C92.1162 59.315 92.5355 59.4623 92.8529 59.757C93.1702 60.0403 93.3289 60.403 93.3289 60.845C93.3289 61.2757 93.1702 61.6383 92.8529 61.933C92.5355 62.2163 92.1162 62.358 91.5949 62.358C91.0735 62.358 90.6542 62.2163 90.3369 61.933C90.0195 61.6383 89.8609 61.2757 89.8609 60.845ZM93.0399 63.514V73H90.1329V63.514H93.0399ZM101.065 63.412C102.153 63.412 103.014 63.7747 103.649 64.5C104.295 65.2253 104.618 66.2227 104.618 67.492V73H101.711V67.832C101.711 67.1973 101.541 66.7043 101.201 66.353C100.872 65.9903 100.43 65.809 99.8749 65.809C99.2856 65.809 98.8153 65.996 98.4639 66.37C98.1239 66.744 97.9539 67.2767 97.9539 67.968V73H95.0469V63.514H97.9539V65.248C98.2259 64.6813 98.6283 64.2337 99.1609 63.905C99.7049 63.5763 100.34 63.412 101.065 63.412Z" fill="#FF9F14"/>
<path d="M7 10C7 8.34315 8.34315 7 10 7H180.143C181.228 7 182.228 7.58613 182.759 8.5327L207.152 52.0327C207.663 52.9441 207.663 54.0559 207.152 54.9673L182.759 98.4673C182.228 99.4139 181.228 100 180.143 100H10C8.34314 100 7 98.6569 7 97V10Z" stroke="#EAEBEE" stroke-opacity="0.54" stroke-width="14"/>
</svg>
