<svg width="195" height="179" viewBox="0 0 195 179" fill="none" xmlns="http://www.w3.org/2000/svg">
<path d="M130.03 24.3697C130.001 24.3693 129.972 24.3652 129.943 24.3652H84.5768L95.0774 13.8646C98.249 10.6929 98.249 5.55038 95.0774 2.37873C91.9057 -0.792911 86.7632 -0.792911 83.5915 2.37873L59.2265 26.7438C59.0373 26.933 58.8583 27.1321 58.6885 27.3388C58.6116 27.4325 58.5446 27.5315 58.4723 27.6278C58.3855 27.7435 58.296 27.8566 58.2157 27.9769C58.1384 28.0922 58.0714 28.2122 58.001 28.3306C57.9359 28.4394 57.8674 28.546 57.8072 28.6583C57.7429 28.779 57.6881 28.9031 57.6302 29.0261C57.575 29.1434 57.5164 29.2587 57.4665 29.3786C57.417 29.4982 57.377 29.6204 57.3336 29.7415C57.2872 29.8701 57.2381 29.9973 57.1981 30.129C57.1615 30.2501 57.1345 30.3734 57.1037 30.496C57.0698 30.6304 57.0321 30.7629 57.0051 30.8999C56.9769 31.0416 56.9601 31.1847 56.94 31.3271C56.9228 31.4466 56.9004 31.5639 56.8882 31.6849C56.8623 31.9488 56.8482 32.2134 56.8482 32.4783C56.8482 32.481 56.8478 32.4837 56.8478 32.4863C56.8478 32.4894 56.8482 32.492 56.8482 32.4951C56.8486 32.7597 56.8623 33.0243 56.8882 33.2877C56.9 33.4088 56.9228 33.5264 56.94 33.646C56.9605 33.7887 56.9769 33.9315 57.0051 34.0731C57.0321 34.2102 57.0698 34.3426 57.1037 34.477C57.1345 34.5996 57.1612 34.7226 57.1981 34.8436C57.2381 34.9754 57.2876 35.1025 57.3336 35.2316C57.377 35.3526 57.417 35.4745 57.4661 35.5936C57.516 35.7139 57.5746 35.8293 57.6298 35.9465C57.6877 36.0695 57.7425 36.1936 57.8068 36.3139C57.867 36.4262 57.9355 36.5332 58.001 36.6421C58.0714 36.7601 58.1384 36.88 58.2157 36.9954C58.2964 37.1161 58.3863 37.2295 58.4731 37.3453C58.545 37.4412 58.6116 37.5402 58.6885 37.6334C58.8583 37.8405 59.0373 38.0397 59.2265 38.2289L83.5915 62.5939C86.7632 65.7656 91.9057 65.7656 95.0774 62.5939C98.249 59.4223 98.249 54.2797 95.0774 51.1081L84.5768 40.6075H129.874C129.896 40.6075 129.917 40.6109 129.939 40.6109C156.884 40.6109 178.669 62.3956 178.669 89.341C178.669 101.169 173.945 112.297 165.679 120.571C162.508 123.744 162.511 128.886 165.684 132.056C168.857 135.227 173.999 135.225 177.17 132.051C188.443 120.769 194.912 105.528 194.912 89.341C194.912 53.4563 165.904 24.4192 130.03 24.3697Z" fill="#EAEBEE" fill-opacity="0.54"/>
<path d="M136.44 151.049C136.527 150.933 136.616 150.82 136.697 150.7C136.774 150.584 136.841 150.465 136.912 150.346C136.977 150.237 137.045 150.131 137.105 150.019C137.17 149.898 137.224 149.773 137.283 149.649C137.338 149.533 137.396 149.418 137.446 149.298C137.495 149.179 137.535 149.056 137.579 148.934C137.625 148.806 137.674 148.679 137.714 148.548C137.75 148.427 137.778 148.303 137.808 148.18C137.842 148.046 137.88 147.914 137.907 147.778C137.935 147.635 137.951 147.491 137.972 147.348C137.989 147.229 138.012 147.113 138.024 146.993C138.076 146.46 138.076 145.923 138.024 145.39C138.012 145.269 137.99 145.153 137.972 145.035C137.952 144.891 137.935 144.747 137.907 144.604C137.88 144.468 137.843 144.336 137.809 144.202C137.778 144.079 137.751 143.956 137.714 143.834C137.674 143.702 137.625 143.576 137.579 143.448C137.535 143.326 137.495 143.203 137.446 143.083C137.396 142.964 137.338 142.849 137.283 142.733C137.224 142.609 137.17 142.484 137.104 142.363C137.045 142.252 136.977 142.145 136.912 142.037C136.841 141.918 136.774 141.798 136.696 141.682C136.616 141.562 136.527 141.449 136.441 141.334C136.368 141.237 136.301 141.138 136.223 141.044C136.056 140.84 135.88 140.644 135.694 140.457C135.691 140.454 135.688 140.451 135.686 140.449L111.32 116.084C108.149 112.912 103.006 112.912 99.8347 116.084C96.663 119.255 96.663 124.398 99.8347 127.569L110.335 138.07H65.0379C65.0162 138.07 64.9953 138.067 64.9736 138.067C38.0281 138.067 16.2435 116.282 16.2435 89.3364C16.2435 77.5087 20.9673 66.3803 29.2335 58.1069C32.404 54.9337 32.4017 49.7915 29.2285 46.621C26.0554 43.4505 20.9132 43.4528 17.7427 46.626C6.4693 57.9081 0 73.1489 0 89.3356C0 125.222 29.0081 154.259 64.8822 154.308C64.9115 154.308 64.9401 154.313 64.9694 154.313H110.335L99.8347 164.813C96.663 167.985 96.663 173.127 99.8347 176.299C103.006 179.471 108.149 179.471 111.32 176.299L135.686 151.934C135.687 151.933 135.688 151.931 135.69 151.929C135.877 151.742 136.055 151.544 136.223 151.339C136.301 151.244 136.368 151.145 136.44 151.049Z" fill="#EAEBEE" fill-opacity="0.54"/>
<path d="M60.134 69.454C60.9727 69.454 61.6923 69.6013 62.293 69.896C62.8937 70.1793 63.347 70.576 63.653 71.086C63.9703 71.5847 64.129 72.1513 64.129 72.786C64.129 73.568 63.925 74.197 63.517 74.673C63.1203 75.149 62.6217 75.4493 62.021 75.574V75.659C63.5737 76.1577 64.35 77.1267 64.35 78.566C64.35 79.2573 64.1913 79.875 63.874 80.419C63.5567 80.9517 63.092 81.371 62.48 81.677C61.8793 81.9717 61.154 82.119 60.304 82.119C58.9213 82.119 57.822 81.779 57.006 81.099C56.2013 80.419 55.765 79.382 55.697 77.988H58.536C58.5587 78.5207 58.706 78.94 58.978 79.246C59.25 79.552 59.6467 79.705 60.168 79.705C60.5873 79.705 60.916 79.5803 61.154 79.331C61.4033 79.0817 61.528 78.7587 61.528 78.362C61.528 77.376 60.814 76.883 59.386 76.883H58.842V74.52H59.369C60.6497 74.5427 61.29 74.0837 61.29 73.143C61.29 72.735 61.1767 72.4233 60.95 72.208C60.7347 71.9813 60.44 71.868 60.066 71.868C59.658 71.868 59.335 72.0097 59.097 72.293C58.859 72.565 58.723 72.9333 58.689 73.398H55.85C55.9067 72.1287 56.3033 71.154 57.04 70.474C57.7767 69.794 58.808 69.454 60.134 69.454ZM68.795 79.093V82H65.786V79.093H68.795ZM76.6239 79.773H80.4999V82H73.7169V69.981H76.6239V79.773ZM85.439 72.395C86.1644 72.395 86.7877 72.5593 87.309 72.888C87.8304 73.2167 88.2157 73.6643 88.465 74.231V72.514H91.355V82H88.465V80.283C88.2157 80.8497 87.8304 81.2973 87.309 81.626C86.7877 81.9547 86.1644 82.119 85.439 82.119C84.657 82.119 83.9544 81.9263 83.331 81.541C82.719 81.1443 82.2317 80.5777 81.869 79.841C81.5177 79.1043 81.342 78.243 81.342 77.257C81.342 76.2597 81.5177 75.3983 81.869 74.673C82.2317 73.9363 82.719 73.3753 83.331 72.99C83.9544 72.5933 84.657 72.395 85.439 72.395ZM86.374 74.945C85.7507 74.945 85.2464 75.149 84.861 75.557C84.487 75.965 84.3 76.5317 84.3 77.257C84.3 77.9823 84.487 78.549 84.861 78.957C85.2464 79.365 85.7507 79.569 86.374 79.569C86.986 79.569 87.4847 79.3593 87.87 78.94C88.2667 78.5207 88.465 77.9597 88.465 77.257C88.465 76.543 88.2667 75.982 87.87 75.574C87.4847 75.1547 86.986 74.945 86.374 74.945ZM102.792 72.514V82H99.8675V80.283C99.5955 80.8383 99.1875 81.2803 98.6435 81.609C98.1108 81.9377 97.4875 82.102 96.7735 82.102C95.6855 82.102 94.8185 81.7393 94.1725 81.014C93.5378 80.2887 93.2205 79.2913 93.2205 78.022V72.514H96.1105V77.665C96.1105 78.311 96.2748 78.8153 96.6035 79.178C96.9435 79.5293 97.3968 79.705 97.9635 79.705C98.5528 79.705 99.0175 79.518 99.3575 79.144C99.6975 78.77 99.8675 78.2373 99.8675 77.546V72.514H102.792ZM110.813 72.412C111.901 72.412 112.762 72.7747 113.397 73.5C114.043 74.2253 114.366 75.2227 114.366 76.492V82H111.459V76.832C111.459 76.1973 111.289 75.7043 110.949 75.353C110.62 74.9903 110.178 74.809 109.623 74.809C109.034 74.809 108.563 74.996 108.212 75.37C107.872 75.744 107.702 76.2767 107.702 76.968V82H104.795V72.514H107.702V74.248C107.974 73.6813 108.376 73.2337 108.909 72.905C109.453 72.5763 110.088 72.412 110.813 72.412ZM120.567 72.395C121.791 72.395 122.817 72.735 123.644 73.415C124.472 74.0837 124.993 75.0073 125.208 76.186H122.131C122.041 75.778 121.854 75.4607 121.57 75.234C121.287 75.0073 120.93 74.894 120.499 74.894C119.989 74.894 119.57 75.098 119.241 75.506C118.913 75.9027 118.748 76.4863 118.748 77.257C118.748 78.0277 118.913 78.617 119.241 79.025C119.57 79.4217 119.989 79.62 120.499 79.62C120.93 79.62 121.287 79.5067 121.57 79.28C121.854 79.0533 122.041 78.736 122.131 78.328H125.208C124.993 79.5067 124.472 80.436 123.644 81.116C122.817 81.7847 121.791 82.119 120.567 82.119C119.638 82.119 118.811 81.9263 118.085 81.541C117.371 81.1443 116.81 80.5777 116.402 79.841C115.994 79.1043 115.79 78.243 115.79 77.257C115.79 76.2597 115.989 75.3983 116.385 74.673C116.793 73.9363 117.36 73.3753 118.085 72.99C118.811 72.5933 119.638 72.395 120.567 72.395ZM132.744 72.412C133.832 72.412 134.693 72.7747 135.328 73.5C135.974 74.2253 136.297 75.2227 136.297 76.492V82H133.39V76.832C133.39 76.1973 133.22 75.7043 132.88 75.353C132.551 74.9903 132.109 74.809 131.554 74.809C130.964 74.809 130.494 74.996 130.143 75.37C129.803 75.744 129.633 76.2767 129.633 76.968V82H126.726V69.42H129.633V74.248C129.905 73.6813 130.307 73.2337 130.84 72.905C131.384 72.5763 132.018 72.412 132.744 72.412ZM59.607 98.395C60.3323 98.395 60.9557 98.5593 61.477 98.888C61.9983 99.2167 62.3837 99.6643 62.633 100.231V98.514H65.523V108H62.633V106.283C62.3837 106.85 61.9983 107.297 61.477 107.626C60.9557 107.955 60.3323 108.119 59.607 108.119C58.825 108.119 58.1223 107.926 57.499 107.541C56.887 107.144 56.3997 106.578 56.037 105.841C55.6857 105.104 55.51 104.243 55.51 103.257C55.51 102.26 55.6857 101.398 56.037 100.673C56.3997 99.9363 56.887 99.3753 57.499 98.99C58.1223 98.5933 58.825 98.395 59.607 98.395ZM60.542 100.945C59.9187 100.945 59.4143 101.149 59.029 101.557C58.655 101.965 58.468 102.532 58.468 103.257C58.468 103.982 58.655 104.549 59.029 104.957C59.4143 105.365 59.9187 105.569 60.542 105.569C61.154 105.569 61.6527 105.359 62.038 104.94C62.4347 104.521 62.633 103.96 62.633 103.257C62.633 102.543 62.4347 101.982 62.038 101.574C61.6527 101.155 61.154 100.945 60.542 100.945ZM73.5425 98.412C74.6305 98.412 75.4918 98.7747 76.1265 99.5C76.7725 100.225 77.0955 101.223 77.0955 102.492V108H74.1885V102.832C74.1885 102.197 74.0185 101.704 73.6785 101.353C73.3498 100.99 72.9078 100.809 72.3525 100.809C71.7632 100.809 71.2928 100.996 70.9415 101.37C70.6015 101.744 70.4315 102.277 70.4315 102.968V108H67.5245V98.514H70.4315V100.248C70.7035 99.6813 71.1058 99.2337 71.6385 98.905C72.1825 98.5763 72.8172 98.412 73.5425 98.412ZM82.6168 98.395C83.3421 98.395 83.9654 98.5593 84.4868 98.888C85.0081 99.2167 85.3878 99.6643 85.6258 100.231V95.42H88.5328V108H85.6258V106.283C85.3878 106.85 85.0081 107.297 84.4868 107.626C83.9654 107.955 83.3421 108.119 82.6168 108.119C81.8348 108.119 81.1321 107.926 80.5088 107.541C79.8968 107.144 79.4094 106.578 79.0468 105.841C78.6954 105.104 78.5198 104.243 78.5198 103.257C78.5198 102.26 78.6954 101.398 79.0468 100.673C79.4094 99.9363 79.8968 99.3753 80.5088 98.99C81.1321 98.5933 81.8348 98.395 82.6168 98.395ZM83.5518 100.945C82.9284 100.945 82.4241 101.149 82.0388 101.557C81.6648 101.965 81.4778 102.532 81.4778 103.257C81.4778 103.982 81.6648 104.549 82.0388 104.957C82.4241 105.365 82.9284 105.569 83.5518 105.569C84.1638 105.569 84.6624 105.359 85.0478 104.94C85.4444 104.521 85.6428 103.96 85.6428 103.257C85.6428 102.543 85.4444 101.982 85.0478 101.574C84.6624 101.155 84.1638 100.945 83.5518 100.945ZM96.8446 105.773H100.721V108H93.9376V95.981H96.8446V105.773ZM111.066 103.002C111.066 103.24 111.037 103.501 110.981 103.784H104.402C104.436 104.498 104.617 105.014 104.946 105.331C105.274 105.637 105.694 105.79 106.204 105.79C106.634 105.79 106.991 105.682 107.275 105.467C107.558 105.252 107.745 104.974 107.836 104.634H110.913C110.788 105.303 110.516 105.903 110.097 106.436C109.677 106.957 109.145 107.371 108.499 107.677C107.853 107.972 107.133 108.119 106.34 108.119C105.41 108.119 104.583 107.926 103.858 107.541C103.144 107.144 102.583 106.578 102.175 105.841C101.767 105.104 101.563 104.243 101.563 103.257C101.563 102.26 101.761 101.398 102.158 100.673C102.566 99.9363 103.132 99.3753 103.858 98.99C104.583 98.5933 105.41 98.395 106.34 98.395C107.28 98.395 108.108 98.5877 108.822 98.973C109.536 99.3583 110.085 99.9023 110.471 100.605C110.867 101.296 111.066 102.095 111.066 103.002ZM108.125 102.56C108.136 101.937 107.966 101.472 107.615 101.166C107.275 100.849 106.85 100.69 106.34 100.69C105.807 100.69 105.365 100.849 105.014 101.166C104.662 101.483 104.464 101.948 104.419 102.56H108.125ZM116.185 98.395C116.91 98.395 117.534 98.5593 118.055 98.888C118.576 99.2167 118.962 99.6643 119.211 100.231V98.514H122.101V108H119.211V106.283C118.962 106.85 118.576 107.297 118.055 107.626C117.534 107.955 116.91 108.119 116.185 108.119C115.403 108.119 114.7 107.926 114.077 107.541C113.465 107.144 112.978 106.578 112.615 105.841C112.264 105.104 112.088 104.243 112.088 103.257C112.088 102.26 112.264 101.398 112.615 100.673C112.978 99.9363 113.465 99.3753 114.077 98.99C114.7 98.5933 115.403 98.395 116.185 98.395ZM117.12 100.945C116.497 100.945 115.992 101.149 115.607 101.557C115.233 101.965 115.046 102.532 115.046 103.257C115.046 103.982 115.233 104.549 115.607 104.957C115.992 105.365 116.497 105.569 117.12 105.569C117.732 105.569 118.231 105.359 118.616 104.94C119.013 104.521 119.211 103.96 119.211 103.257C119.211 102.543 119.013 101.982 118.616 101.574C118.231 101.155 117.732 100.945 117.12 100.945ZM127.01 100.299C127.372 99.721 127.837 99.262 128.404 98.922C128.982 98.582 129.605 98.412 130.274 98.412V101.523H129.441C128.67 101.523 128.069 101.687 127.639 102.016C127.219 102.345 127.01 102.9 127.01 103.682V108H124.103V98.514H127.01V100.299ZM137.508 98.412C138.596 98.412 139.458 98.7747 140.092 99.5C140.738 100.225 141.061 101.223 141.061 102.492V108H138.154V102.832C138.154 102.197 137.984 101.704 137.644 101.353C137.316 100.99 136.874 100.809 136.318 100.809C135.729 100.809 135.259 100.996 134.907 101.37C134.567 101.744 134.397 102.277 134.397 102.968V108H131.49V98.514H134.397V100.248C134.669 99.6813 135.072 99.2337 135.604 98.905C136.148 98.5763 136.783 98.412 137.508 98.412Z" fill="#F8015C"/>
</svg>
