<svg width="216" height="107" viewBox="0 0 216 107" fill="none" xmlns="http://www.w3.org/2000/svg">
<path d="M49.187 35.701V32.981H54.049V45H50.989V35.701H49.187ZM58.5616 42.093V45H55.5526V42.093H58.5616ZM70.9295 42.807H66.4245L65.6765 45H62.6165L67.0195 33.066H70.3685L74.7715 45H71.6775L70.9295 42.807ZM70.1815 40.597L68.6855 36.177L67.1725 40.597H70.1815ZM79.3524 35.395C80.5538 35.395 81.5114 35.6953 82.2254 36.296C82.9508 36.8967 83.4041 37.69 83.5854 38.676H80.8654C80.7861 38.2907 80.6048 37.9903 80.3214 37.775C80.0494 37.5483 79.7038 37.435 79.2844 37.435C78.9558 37.435 78.7064 37.5087 78.5364 37.656C78.3664 37.792 78.2814 37.9903 78.2814 38.251C78.2814 38.5457 78.4344 38.7667 78.7404 38.914C79.0578 39.0613 79.5508 39.2087 80.2194 39.356C80.9448 39.526 81.5398 39.7017 82.0044 39.883C82.4691 40.053 82.8714 40.3363 83.2114 40.733C83.5514 41.1297 83.7214 41.6623 83.7214 42.331C83.7214 42.875 83.5741 43.3567 83.2794 43.776C82.9848 44.1953 82.5598 44.524 82.0044 44.762C81.4491 45 80.7918 45.119 80.0324 45.119C78.7518 45.119 77.7261 44.8357 76.9554 44.269C76.1848 43.7023 75.7144 42.892 75.5444 41.838H78.3494C78.3948 42.246 78.5648 42.5577 78.8594 42.773C79.1654 42.9883 79.5564 43.096 80.0324 43.096C80.3611 43.096 80.6104 43.0223 80.7804 42.875C80.9504 42.7163 81.0354 42.5123 81.0354 42.263C81.0354 41.9343 80.8768 41.702 80.5594 41.566C80.2534 41.4187 79.7491 41.2657 79.0464 41.107C78.3438 40.9597 77.7658 40.801 77.3124 40.631C76.8591 40.461 76.4681 40.189 76.1394 39.815C75.8108 39.4297 75.6464 38.9083 75.6464 38.251C75.6464 37.401 75.9694 36.7153 76.6154 36.194C77.2614 35.6613 78.1738 35.395 79.3524 35.395ZM88.7821 35.395C89.9835 35.395 90.9411 35.6953 91.6551 36.296C92.3805 36.8967 92.8338 37.69 93.0151 38.676H90.2951C90.2158 38.2907 90.0345 37.9903 89.7511 37.775C89.4791 37.5483 89.1335 37.435 88.7141 37.435C88.3855 37.435 88.1361 37.5087 87.9661 37.656C87.7961 37.792 87.7111 37.9903 87.7111 38.251C87.7111 38.5457 87.8641 38.7667 88.1701 38.914C88.4875 39.0613 88.9805 39.2087 89.6491 39.356C90.3745 39.526 90.9695 39.7017 91.4341 39.883C91.8988 40.053 92.3011 40.3363 92.6411 40.733C92.9811 41.1297 93.1511 41.6623 93.1511 42.331C93.1511 42.875 93.0038 43.3567 92.7091 43.776C92.4145 44.1953 91.9895 44.524 91.4341 44.762C90.8788 45 90.2215 45.119 89.4621 45.119C88.1815 45.119 87.1558 44.8357 86.3851 44.269C85.6145 43.7023 85.1441 42.892 84.9741 41.838H87.7791C87.8245 42.246 87.9945 42.5577 88.2891 42.773C88.5951 42.9883 88.9861 43.096 89.4621 43.096C89.7908 43.096 90.0401 43.0223 90.2101 42.875C90.3801 42.7163 90.4651 42.5123 90.4651 42.263C90.4651 41.9343 90.3065 41.702 89.9891 41.566C89.6831 41.4187 89.1788 41.2657 88.4761 41.107C87.7735 40.9597 87.1955 40.801 86.7421 40.631C86.2888 40.461 85.8978 40.189 85.5691 39.815C85.2405 39.4297 85.0761 38.9083 85.0761 38.251C85.0761 37.401 85.3991 36.7153 86.0451 36.194C86.6911 35.6613 87.6035 35.395 88.7821 35.395ZM103.771 40.002C103.771 40.24 103.742 40.5007 103.686 40.784H97.1068C97.1408 41.498 97.3221 42.0137 97.6508 42.331C97.9795 42.637 98.3988 42.79 98.9088 42.79C99.3395 42.79 99.6965 42.6823 99.9798 42.467C100.263 42.2517 100.45 41.974 100.541 41.634H103.618C103.493 42.3027 103.221 42.9033 102.802 43.436C102.382 43.9573 101.85 44.371 101.204 44.677C100.558 44.9717 99.8381 45.119 99.0448 45.119C98.1155 45.119 97.2881 44.9263 96.5628 44.541C95.8488 44.1443 95.2878 43.5777 94.8798 42.841C94.4718 42.1043 94.2678 41.243 94.2678 40.257C94.2678 39.2597 94.4661 38.3983 94.8628 37.673C95.2708 36.9363 95.8375 36.3753 96.5628 35.99C97.2881 35.5933 98.1155 35.395 99.0448 35.395C99.9855 35.395 100.813 35.5877 101.527 35.973C102.241 36.3583 102.79 36.9023 103.176 37.605C103.572 38.2963 103.771 39.0953 103.771 40.002ZM100.83 39.56C100.841 38.9367 100.671 38.472 100.32 38.166C99.9798 37.8487 99.5548 37.69 99.0448 37.69C98.5121 37.69 98.0701 37.8487 97.7188 38.166C97.3675 38.4833 97.1691 38.948 97.1238 39.56H100.83ZM117.577 35.412C118.745 35.412 119.663 35.7747 120.331 36.5C121 37.214 121.334 38.2113 121.334 39.492V45H118.444V39.832C118.444 39.2313 118.28 38.7667 117.951 38.438C117.634 38.098 117.198 37.928 116.642 37.928C116.064 37.928 115.605 38.1093 115.265 38.472C114.937 38.8233 114.772 39.322 114.772 39.968V45H111.865V39.832C111.865 39.2313 111.707 38.7667 111.389 38.438C111.072 38.098 110.636 37.928 110.08 37.928C109.502 37.928 109.043 38.1037 108.703 38.455C108.363 38.8063 108.193 39.3107 108.193 39.968V45H105.286V35.514H108.193V37.129C108.443 36.5963 108.822 36.177 109.332 35.871C109.854 35.565 110.46 35.412 111.151 35.412C111.877 35.412 112.517 35.582 113.072 35.922C113.628 36.2507 114.047 36.7267 114.33 37.35C114.659 36.7607 115.107 36.2903 115.673 35.939C116.251 35.5877 116.886 35.412 117.577 35.412ZM129.182 35.395C129.964 35.395 130.661 35.5933 131.273 35.99C131.896 36.3753 132.383 36.9363 132.735 37.673C133.097 38.3983 133.279 39.2597 133.279 40.257C133.279 41.243 133.097 42.1043 132.735 42.841C132.383 43.5777 131.896 44.1443 131.273 44.541C130.661 44.9263 129.964 45.119 129.182 45.119C128.456 45.119 127.833 44.9547 127.312 44.626C126.79 44.2973 126.411 43.8497 126.173 43.283V45H123.266V32.42H126.173V37.231C126.411 36.6643 126.79 36.2167 127.312 35.888C127.833 35.5593 128.456 35.395 129.182 35.395ZM128.247 37.945C127.635 37.945 127.13 38.1547 126.734 38.574C126.348 38.982 126.156 39.543 126.156 40.257C126.156 40.9597 126.348 41.5207 126.734 41.94C127.13 42.3593 127.635 42.569 128.247 42.569C128.87 42.569 129.369 42.365 129.743 41.957C130.128 41.549 130.321 40.9823 130.321 40.257C130.321 39.5317 130.128 38.965 129.743 38.557C129.369 38.149 128.87 37.945 128.247 37.945ZM137.694 32.42V45H134.787V32.42H137.694ZM148.711 40.002C148.711 40.24 148.683 40.5007 148.626 40.784H142.047C142.081 41.498 142.263 42.0137 142.591 42.331C142.92 42.637 143.339 42.79 143.849 42.79C144.28 42.79 144.637 42.6823 144.92 42.467C145.204 42.2517 145.391 41.974 145.481 41.634H148.558C148.434 42.3027 148.162 42.9033 147.742 43.436C147.323 43.9573 146.79 44.371 146.144 44.677C145.498 44.9717 144.779 45.119 143.985 45.119C143.056 45.119 142.229 44.9263 141.503 44.541C140.789 44.1443 140.228 43.5777 139.82 42.841C139.412 42.1043 139.208 41.243 139.208 40.257C139.208 39.2597 139.407 38.3983 139.803 37.673C140.211 36.9363 140.778 36.3753 141.503 35.99C142.229 35.5933 143.056 35.395 143.985 35.395C144.926 35.395 145.753 35.5877 146.467 35.973C147.181 36.3583 147.731 36.9023 148.116 37.605C148.513 38.2963 148.711 39.0953 148.711 40.002ZM145.77 39.56C145.782 38.9367 145.612 38.472 145.26 38.166C144.92 37.8487 144.495 37.69 143.985 37.69C143.453 37.69 143.011 37.8487 142.659 38.166C142.308 38.4833 142.11 38.948 142.064 39.56H145.77ZM58.639 58.981V61.293H55.375V71H52.451V61.293H49.221V58.981H58.639ZM68.8743 66.002C68.8743 66.24 68.846 66.5007 68.7893 66.784H62.2103C62.2443 67.498 62.4257 68.0137 62.7543 68.331C63.083 68.637 63.5023 68.79 64.0123 68.79C64.443 68.79 64.8 68.6823 65.0833 68.467C65.3667 68.2517 65.5537 67.974 65.6443 67.634H68.7213C68.5967 68.3027 68.3247 68.9033 67.9053 69.436C67.486 69.9573 66.9533 70.371 66.3073 70.677C65.6613 70.9717 64.9417 71.119 64.1483 71.119C63.219 71.119 62.3917 70.9263 61.6663 70.541C60.9523 70.1443 60.3913 69.5777 59.9833 68.841C59.5753 68.1043 59.3713 67.243 59.3713 66.257C59.3713 65.2597 59.5697 64.3983 59.9663 63.673C60.3743 62.9363 60.941 62.3753 61.6663 61.99C62.3917 61.5933 63.219 61.395 64.1483 61.395C65.089 61.395 65.9163 61.5877 66.6303 61.973C67.3443 62.3583 67.894 62.9023 68.2793 63.605C68.676 64.2963 68.8743 65.0953 68.8743 66.002ZM65.9333 65.56C65.9447 64.9367 65.7747 64.472 65.4233 64.166C65.0833 63.8487 64.6583 63.69 64.1483 63.69C63.6157 63.69 63.1737 63.8487 62.8223 64.166C62.471 64.4833 62.2727 64.948 62.2273 65.56H65.9333ZM73.9937 61.395C74.7191 61.395 75.3424 61.5593 75.8637 61.888C76.3851 62.2167 76.7704 62.6643 77.0197 63.231V61.514H79.9097V71H77.0197V69.283C76.7704 69.8497 76.3851 70.2973 75.8637 70.626C75.3424 70.9547 74.7191 71.119 73.9937 71.119C73.2117 71.119 72.5091 70.9263 71.8857 70.541C71.2737 70.1443 70.7864 69.5777 70.4237 68.841C70.0724 68.1043 69.8967 67.243 69.8967 66.257C69.8967 65.2597 70.0724 64.3983 70.4237 63.673C70.7864 62.9363 71.2737 62.3753 71.8857 61.99C72.5091 61.5933 73.2117 61.395 73.9937 61.395ZM74.9287 63.945C74.3054 63.945 73.8011 64.149 73.4157 64.557C73.0417 64.965 72.8547 65.5317 72.8547 66.257C72.8547 66.9823 73.0417 67.549 73.4157 67.957C73.8011 68.365 74.3054 68.569 74.9287 68.569C75.5407 68.569 76.0394 68.3593 76.4247 67.94C76.8214 67.5207 77.0197 66.9597 77.0197 66.257C77.0197 65.543 76.8214 64.982 76.4247 64.574C76.0394 64.1547 75.5407 63.945 74.9287 63.945ZM94.2022 61.412C95.3695 61.412 96.2875 61.7747 96.9562 62.5C97.6249 63.214 97.9592 64.2113 97.9592 65.492V71H95.0692V65.832C95.0692 65.2313 94.9049 64.7667 94.5762 64.438C94.2589 64.098 93.8225 63.928 93.2672 63.928C92.6892 63.928 92.2302 64.1093 91.8902 64.472C91.5615 64.8233 91.3972 65.322 91.3972 65.968V71H88.4902V65.832C88.4902 65.2313 88.3315 64.7667 88.0142 64.438C87.6969 64.098 87.2605 63.928 86.7052 63.928C86.1272 63.928 85.6682 64.1037 85.3282 64.455C84.9882 64.8063 84.8182 65.3107 84.8182 65.968V71H81.9112V61.514H84.8182V63.129C85.0675 62.5963 85.4472 62.177 85.9572 61.871C86.4785 61.565 87.0849 61.412 87.7762 61.412C88.5015 61.412 89.1419 61.582 89.6972 61.922C90.2525 62.2507 90.6719 62.7267 90.9552 63.35C91.2839 62.7607 91.7315 62.2903 92.2982 61.939C92.8762 61.5877 93.5109 61.412 94.2022 61.412Z" fill="#F8015C"/>
<path d="M7 10C7 8.34315 8.34315 7 10 7H180.143C181.228 7 182.228 7.58613 182.759 8.5327L207.152 52.0327C207.663 52.9441 207.663 54.0559 207.152 54.9673L182.759 98.4673C182.228 99.4139 181.228 100 180.143 100H10C8.34314 100 7 98.6569 7 97V10Z" stroke="#EAEBEE" stroke-opacity="0.54" stroke-width="14"/>
</svg>
