<svg width="195" height="179" viewBox="0 0 195 179" fill="none" xmlns="http://www.w3.org/2000/svg">
<path d="M56.578 77.688C60.182 75.1153 61.984 73.0697 61.984 71.551C61.984 70.6217 61.5817 70.157 60.777 70.157C60.3237 70.157 59.9893 70.3157 59.774 70.633C59.57 70.9503 59.4567 71.4433 59.434 72.112H56.595C56.663 70.65 57.105 69.5507 57.921 68.814C58.737 68.0773 59.7683 67.709 61.015 67.709C62.3183 67.709 63.2987 68.0377 63.956 68.695C64.6247 69.3523 64.959 70.208 64.959 71.262C64.959 72.4293 64.5113 73.574 63.616 74.696C62.7207 75.8067 61.6497 76.7473 60.403 77.518H65.146V79.864H56.578V77.688ZM69.1309 77.093V80H66.1219V77.093H69.1309ZM84.8648 73.965C84.8648 75.1437 84.6098 76.192 84.0998 77.11C83.6011 78.0167 82.8758 78.725 81.9238 79.235C80.9831 79.745 79.8725 80 78.5918 80H74.0528V67.981H78.5918C79.8838 67.981 81.0001 68.2303 81.9408 68.729C82.8815 69.2277 83.6011 69.9303 84.0998 70.837C84.6098 71.7437 84.8648 72.7863 84.8648 73.965ZM78.3368 77.399C79.4701 77.399 80.3485 77.0987 80.9718 76.498C81.6065 75.8973 81.9238 75.053 81.9238 73.965C81.9238 72.877 81.6065 72.0327 80.9718 71.432C80.3485 70.8313 79.4701 70.531 78.3368 70.531H76.9598V77.399H78.3368ZM95.5306 75.002C95.5306 75.24 95.5022 75.5007 95.4456 75.784H88.8666C88.9006 76.498 89.0819 77.0137 89.4106 77.331C89.7392 77.637 90.1586 77.79 90.6686 77.79C91.0992 77.79 91.4562 77.6823 91.7396 77.467C92.0229 77.2517 92.2099 76.974 92.3006 76.634H95.3776C95.2529 77.3027 94.9809 77.9033 94.5616 78.436C94.1422 78.9573 93.6096 79.371 92.9636 79.677C92.3176 79.9717 91.5979 80.119 90.8046 80.119C89.8752 80.119 89.0479 79.9263 88.3226 79.541C87.6086 79.1443 87.0476 78.5777 86.6396 77.841C86.2316 77.1043 86.0276 76.243 86.0276 75.257C86.0276 74.2597 86.2259 73.3983 86.6226 72.673C87.0306 71.9363 87.5972 71.3753 88.3226 70.99C89.0479 70.5933 89.8752 70.395 90.8046 70.395C91.7452 70.395 92.5726 70.5877 93.2866 70.973C94.0006 71.3583 94.5502 71.9023 94.9356 72.605C95.3322 73.2963 95.5306 74.0953 95.5306 75.002ZM92.5896 74.56C92.6009 73.9367 92.4309 73.472 92.0796 73.166C91.7396 72.8487 91.3146 72.69 90.8046 72.69C90.2719 72.69 89.8299 72.8487 89.4786 73.166C89.1272 73.4833 88.9289 73.948 88.8836 74.56H92.5896ZM100.497 70.395C101.698 70.395 102.656 70.6953 103.37 71.296C104.095 71.8967 104.549 72.69 104.73 73.676H102.01C101.931 73.2907 101.749 72.9903 101.466 72.775C101.194 72.5483 100.848 72.435 100.429 72.435C100.1 72.435 99.851 72.5087 99.681 72.656C99.511 72.792 99.426 72.9903 99.426 73.251C99.426 73.5457 99.579 73.7667 99.885 73.914C100.202 74.0613 100.695 74.2087 101.364 74.356C102.089 74.526 102.684 74.7017 103.149 74.883C103.614 75.053 104.016 75.3363 104.356 75.733C104.696 76.1297 104.866 76.6623 104.866 77.331C104.866 77.875 104.719 78.3567 104.424 78.776C104.129 79.1953 103.704 79.524 103.149 79.762C102.594 80 101.936 80.119 101.177 80.119C99.8963 80.119 98.8706 79.8357 98.1 79.269C97.3293 78.7023 96.859 77.892 96.689 76.838H99.494C99.5393 77.246 99.7093 77.5577 100.004 77.773C100.31 77.9883 100.701 78.096 101.177 78.096C101.506 78.096 101.755 78.0223 101.925 77.875C102.095 77.7163 102.18 77.5123 102.18 77.263C102.18 76.9343 102.021 76.702 101.704 76.566C101.398 76.4187 100.894 76.2657 100.191 76.107C99.4883 75.9597 98.9103 75.801 98.457 75.631C98.0036 75.461 97.6126 75.189 97.284 74.815C96.9553 74.4297 96.791 73.9083 96.791 73.251C96.791 72.401 97.114 71.7153 97.76 71.194C98.406 70.6613 99.3183 70.395 100.497 70.395ZM106.204 67.845C106.204 67.403 106.362 67.0403 106.68 66.757C106.997 66.4623 107.416 66.315 107.938 66.315C108.459 66.315 108.878 66.4623 109.196 66.757C109.513 67.0403 109.672 67.403 109.672 67.845C109.672 68.2757 109.513 68.6383 109.196 68.933C108.878 69.2163 108.459 69.358 107.938 69.358C107.416 69.358 106.997 69.2163 106.68 68.933C106.362 68.6383 106.204 68.2757 106.204 67.845ZM109.383 70.514V80H106.476V70.514H109.383ZM114.994 70.395C115.719 70.395 116.342 70.5593 116.864 70.888C117.385 71.2167 117.77 71.6643 118.02 72.231V70.514H120.91V79.949C120.91 80.833 120.74 81.6263 120.4 82.329C120.06 83.043 119.538 83.6097 118.836 84.029C118.133 84.4483 117.26 84.658 116.218 84.658C114.79 84.658 113.645 84.318 112.784 83.638C111.934 82.9693 111.424 82.057 111.254 80.901H114.127C114.217 81.2863 114.421 81.5867 114.739 81.802C115.067 82.0173 115.492 82.125 116.014 82.125C116.614 82.125 117.096 81.9493 117.459 81.598C117.833 81.258 118.02 80.7083 118.02 79.949V78.283C117.77 78.8497 117.385 79.2973 116.864 79.626C116.342 79.9547 115.719 80.119 114.994 80.119C114.212 80.119 113.509 79.9263 112.886 79.541C112.274 79.1443 111.786 78.5777 111.424 77.841C111.072 77.1043 110.897 76.243 110.897 75.257C110.897 74.2597 111.072 73.3983 111.424 72.673C111.786 71.9363 112.274 71.3753 112.886 70.99C113.509 70.5933 114.212 70.395 114.994 70.395ZM115.929 72.945C115.305 72.945 114.801 73.149 114.416 73.557C114.042 73.965 113.855 74.5317 113.855 75.257C113.855 75.9823 114.042 76.549 114.416 76.957C114.801 77.365 115.305 77.569 115.929 77.569C116.541 77.569 117.039 77.3593 117.425 76.94C117.821 76.5207 118.02 75.9597 118.02 75.257C118.02 74.543 117.821 73.982 117.425 73.574C117.039 73.1547 116.541 72.945 115.929 72.945ZM128.929 70.412C130.017 70.412 130.879 70.7747 131.513 71.5C132.159 72.2253 132.482 73.2227 132.482 74.492V80H129.575V74.832C129.575 74.1973 129.405 73.7043 129.065 73.353C128.737 72.9903 128.295 72.809 127.739 72.809C127.15 72.809 126.68 72.996 126.328 73.37C125.988 73.744 125.818 74.2767 125.818 74.968V80H122.911V70.514H125.818V72.248C126.09 71.6813 126.493 71.2337 127.025 70.905C127.569 70.5763 128.204 70.412 128.929 70.412ZM60.607 96.395C61.3323 96.395 61.9557 96.5593 62.477 96.888C62.9983 97.2167 63.3837 97.6643 63.633 98.231V96.514H66.523V106H63.633V104.283C63.3837 104.85 62.9983 105.297 62.477 105.626C61.9557 105.955 61.3323 106.119 60.607 106.119C59.825 106.119 59.1223 105.926 58.499 105.541C57.887 105.144 57.3997 104.578 57.037 103.841C56.6857 103.104 56.51 102.243 56.51 101.257C56.51 100.26 56.6857 99.3983 57.037 98.673C57.3997 97.9363 57.887 97.3753 58.499 96.99C59.1223 96.5933 59.825 96.395 60.607 96.395ZM61.542 98.945C60.9187 98.945 60.4143 99.149 60.029 99.557C59.655 99.965 59.468 100.532 59.468 101.257C59.468 101.982 59.655 102.549 60.029 102.957C60.4143 103.365 60.9187 103.569 61.542 103.569C62.154 103.569 62.6527 103.359 63.038 102.94C63.4347 102.521 63.633 101.96 63.633 101.257C63.633 100.543 63.4347 99.982 63.038 99.574C62.6527 99.1547 62.154 98.945 61.542 98.945ZM74.5425 96.412C75.6305 96.412 76.4918 96.7747 77.1265 97.5C77.7725 98.2253 78.0955 99.2227 78.0955 100.492V106H75.1885V100.832C75.1885 100.197 75.0185 99.7043 74.6785 99.353C74.3498 98.9903 73.9078 98.809 73.3525 98.809C72.7632 98.809 72.2928 98.996 71.9415 99.37C71.6015 99.744 71.4315 100.277 71.4315 100.968V106H68.5245V96.514H71.4315V98.248C71.7035 97.6813 72.1058 97.2337 72.6385 96.905C73.1825 96.5763 73.8172 96.412 74.5425 96.412ZM83.6168 96.395C84.3421 96.395 84.9654 96.5593 85.4868 96.888C86.0081 97.2167 86.3878 97.6643 86.6258 98.231V93.42H89.5328V106H86.6258V104.283C86.3878 104.85 86.0081 105.297 85.4868 105.626C84.9654 105.955 84.3421 106.119 83.6168 106.119C82.8348 106.119 82.1321 105.926 81.5088 105.541C80.8968 105.144 80.4094 104.578 80.0468 103.841C79.6954 103.104 79.5198 102.243 79.5198 101.257C79.5198 100.26 79.6954 99.3983 80.0468 98.673C80.4094 97.9363 80.8968 97.3753 81.5088 96.99C82.1321 96.5933 82.8348 96.395 83.6168 96.395ZM84.5518 98.945C83.9284 98.945 83.4241 99.149 83.0388 99.557C82.6648 99.965 82.4778 100.532 82.4778 101.257C82.4778 101.982 82.6648 102.549 83.0388 102.957C83.4241 103.365 83.9284 103.569 84.5518 103.569C85.1638 103.569 85.6624 103.359 86.0478 102.94C86.4444 102.521 86.6428 101.96 86.6428 101.257C86.6428 100.543 86.4444 99.982 86.0478 99.574C85.6624 99.1547 85.1638 98.945 84.5518 98.945ZM97.8446 103.773H101.721V106H94.9376V93.981H97.8446V103.773ZM112.066 101.002C112.066 101.24 112.037 101.501 111.981 101.784H105.402C105.436 102.498 105.617 103.014 105.946 103.331C106.274 103.637 106.694 103.79 107.204 103.79C107.634 103.79 107.991 103.682 108.275 103.467C108.558 103.252 108.745 102.974 108.836 102.634H111.913C111.788 103.303 111.516 103.903 111.097 104.436C110.677 104.957 110.145 105.371 109.499 105.677C108.853 105.972 108.133 106.119 107.34 106.119C106.41 106.119 105.583 105.926 104.858 105.541C104.144 105.144 103.583 104.578 103.175 103.841C102.767 103.104 102.563 102.243 102.563 101.257C102.563 100.26 102.761 99.3983 103.158 98.673C103.566 97.9363 104.132 97.3753 104.858 96.99C105.583 96.5933 106.41 96.395 107.34 96.395C108.28 96.395 109.108 96.5877 109.822 96.973C110.536 97.3583 111.085 97.9023 111.471 98.605C111.867 99.2963 112.066 100.095 112.066 101.002ZM109.125 100.56C109.136 99.9367 108.966 99.472 108.615 99.166C108.275 98.8487 107.85 98.69 107.34 98.69C106.807 98.69 106.365 98.8487 106.014 99.166C105.662 99.4833 105.464 99.948 105.419 100.56H109.125ZM117.185 96.395C117.91 96.395 118.534 96.5593 119.055 96.888C119.576 97.2167 119.962 97.6643 120.211 98.231V96.514H123.101V106H120.211V104.283C119.962 104.85 119.576 105.297 119.055 105.626C118.534 105.955 117.91 106.119 117.185 106.119C116.403 106.119 115.7 105.926 115.077 105.541C114.465 105.144 113.978 104.578 113.615 103.841C113.264 103.104 113.088 102.243 113.088 101.257C113.088 100.26 113.264 99.3983 113.615 98.673C113.978 97.9363 114.465 97.3753 115.077 96.99C115.7 96.5933 116.403 96.395 117.185 96.395ZM118.12 98.945C117.497 98.945 116.992 99.149 116.607 99.557C116.233 99.965 116.046 100.532 116.046 101.257C116.046 101.982 116.233 102.549 116.607 102.957C116.992 103.365 117.497 103.569 118.12 103.569C118.732 103.569 119.231 103.359 119.616 102.94C120.013 102.521 120.211 101.96 120.211 101.257C120.211 100.543 120.013 99.982 119.616 99.574C119.231 99.1547 118.732 98.945 118.12 98.945ZM128.01 98.299C128.372 97.721 128.837 97.262 129.404 96.922C129.982 96.582 130.605 96.412 131.274 96.412V99.523H130.441C129.67 99.523 129.069 99.6873 128.639 100.016C128.219 100.345 128.01 100.9 128.01 101.682V106H125.103V96.514H128.01V98.299ZM138.508 96.412C139.596 96.412 140.458 96.7747 141.092 97.5C141.738 98.2253 142.061 99.2227 142.061 100.492V106H139.154V100.832C139.154 100.197 138.984 99.7043 138.644 99.353C138.316 98.9903 137.874 98.809 137.318 98.809C136.729 98.809 136.259 98.996 135.907 99.37C135.567 99.744 135.397 100.277 135.397 100.968V106H132.49V96.514H135.397V98.248C135.669 97.6813 136.072 97.2337 136.604 96.905C137.148 96.5763 137.783 96.412 138.508 96.412Z" fill="#FF9F14"/>
<path d="M130.03 24.3697C130.001 24.3693 129.972 24.3652 129.943 24.3652H84.5768L95.0774 13.8646C98.249 10.6929 98.249 5.55038 95.0774 2.37873C91.9057 -0.792911 86.7632 -0.792911 83.5915 2.37873L59.2265 26.7438C59.0373 26.933 58.8583 27.1321 58.6885 27.3388C58.6116 27.4325 58.5446 27.5315 58.4723 27.6278C58.3855 27.7435 58.296 27.8566 58.2157 27.9769C58.1384 28.0922 58.0714 28.2122 58.001 28.3306C57.9359 28.4394 57.8674 28.546 57.8072 28.6583C57.7429 28.779 57.6881 28.9031 57.6302 29.0261C57.575 29.1434 57.5164 29.2587 57.4665 29.3786C57.417 29.4982 57.377 29.6204 57.3336 29.7415C57.2872 29.8701 57.2381 29.9973 57.1981 30.129C57.1615 30.2501 57.1345 30.3734 57.1037 30.496C57.0698 30.6304 57.0321 30.7629 57.0051 30.8999C56.9769 31.0416 56.9601 31.1847 56.94 31.3271C56.9228 31.4466 56.9004 31.5639 56.8882 31.6849C56.8623 31.9488 56.8482 32.2134 56.8482 32.4783C56.8482 32.481 56.8478 32.4837 56.8478 32.4863C56.8478 32.4894 56.8482 32.492 56.8482 32.4951C56.8486 32.7597 56.8623 33.0243 56.8882 33.2877C56.9 33.4088 56.9228 33.5264 56.94 33.646C56.9605 33.7887 56.9769 33.9315 57.0051 34.0731C57.0321 34.2102 57.0698 34.3426 57.1037 34.477C57.1345 34.5996 57.1612 34.7226 57.1981 34.8436C57.2381 34.9754 57.2876 35.1025 57.3336 35.2316C57.377 35.3526 57.417 35.4745 57.4661 35.5936C57.516 35.7139 57.5746 35.8293 57.6298 35.9465C57.6877 36.0695 57.7425 36.1936 57.8068 36.3139C57.867 36.4262 57.9355 36.5332 58.001 36.6421C58.0714 36.7601 58.1384 36.88 58.2157 36.9954C58.2964 37.1161 58.3863 37.2295 58.4731 37.3453C58.545 37.4412 58.6116 37.5402 58.6885 37.6334C58.8583 37.8405 59.0373 38.0397 59.2265 38.2289L83.5915 62.5939C86.7632 65.7656 91.9057 65.7656 95.0774 62.5939C98.249 59.4223 98.249 54.2797 95.0774 51.1081L84.5768 40.6075H129.874C129.896 40.6075 129.917 40.6109 129.939 40.6109C156.884 40.6109 178.669 62.3956 178.669 89.341C178.669 101.169 173.945 112.297 165.679 120.571C162.508 123.744 162.511 128.886 165.684 132.056C168.857 135.227 173.999 135.225 177.17 132.051C188.443 120.769 194.912 105.528 194.912 89.341C194.912 53.4563 165.904 24.4192 130.03 24.3697Z" fill="#EAEBEE" fill-opacity="0.54"/>
<path d="M136.44 151.049C136.527 150.933 136.616 150.82 136.697 150.7C136.774 150.584 136.841 150.465 136.912 150.346C136.977 150.237 137.045 150.131 137.105 150.019C137.17 149.898 137.224 149.773 137.283 149.649C137.338 149.533 137.396 149.418 137.446 149.298C137.495 149.179 137.535 149.056 137.579 148.934C137.625 148.806 137.674 148.679 137.714 148.548C137.75 148.427 137.778 148.303 137.808 148.18C137.842 148.046 137.88 147.914 137.907 147.778C137.935 147.635 137.951 147.491 137.972 147.348C137.989 147.229 138.012 147.113 138.024 146.993C138.076 146.46 138.076 145.923 138.024 145.39C138.012 145.269 137.99 145.153 137.972 145.035C137.952 144.891 137.935 144.747 137.907 144.604C137.88 144.468 137.843 144.336 137.809 144.202C137.778 144.079 137.751 143.956 137.714 143.834C137.674 143.702 137.625 143.576 137.579 143.448C137.535 143.326 137.495 143.203 137.446 143.083C137.396 142.964 137.338 142.849 137.283 142.733C137.224 142.609 137.17 142.484 137.104 142.363C137.045 142.252 136.977 142.145 136.912 142.037C136.841 141.918 136.774 141.798 136.696 141.682C136.616 141.562 136.527 141.449 136.441 141.334C136.368 141.237 136.301 141.138 136.223 141.044C136.056 140.84 135.88 140.644 135.694 140.457C135.691 140.454 135.688 140.451 135.686 140.449L111.32 116.084C108.149 112.912 103.006 112.912 99.8347 116.084C96.663 119.255 96.663 124.398 99.8347 127.569L110.335 138.07H65.0379C65.0162 138.07 64.9953 138.067 64.9736 138.067C38.0281 138.067 16.2435 116.282 16.2435 89.3364C16.2435 77.5087 20.9673 66.3803 29.2335 58.1069C32.404 54.9337 32.4017 49.7915 29.2285 46.621C26.0554 43.4505 20.9132 43.4528 17.7427 46.626C6.4693 57.9081 0 73.1489 0 89.3356C0 125.222 29.0081 154.259 64.8822 154.308C64.9115 154.308 64.9401 154.313 64.9694 154.313H110.335L99.8347 164.813C96.663 167.985 96.663 173.127 99.8347 176.299C103.006 179.471 108.149 179.471 111.32 176.299L135.686 151.934C135.687 151.933 135.688 151.931 135.69 151.929C135.877 151.742 136.055 151.544 136.223 151.339C136.301 151.244 136.368 151.145 136.44 151.049Z" fill="#EAEBEE" fill-opacity="0.54"/>
</svg>
